<svg width="1228" height="319" viewBox="0 0 1228 319" fill="none" xmlns="http://www.w3.org/2000/svg">
<path d="M66.6011 174.181L53.1312 255H1.49665L33.3006 63.4282H83.0643L70.7169 138.635H72.2136C76.8906 129.468 83.4385 122.328 91.8572 117.214C100.276 112.038 109.817 109.45 120.481 109.45C130.583 109.45 139.002 111.758 145.737 116.372C152.472 120.987 157.242 127.348 160.049 135.455C162.855 143.562 163.385 152.853 161.639 163.33L146.298 255H94.6634L108.133 174.181C109.256 167.072 108.352 161.49 105.421 157.437C102.552 153.383 97.8438 151.357 91.2959 151.357C87.0554 151.357 83.1891 152.292 79.6969 154.163C76.267 155.971 73.3984 158.59 71.0911 162.02C68.8461 165.388 67.3495 169.441 66.6011 174.181ZM181.004 308.88C175.017 308.88 169.436 308.412 164.26 307.476C159.084 306.603 154.563 305.387 150.696 303.828L168.095 267.16C172.086 268.657 175.765 269.624 179.133 270.06C182.563 270.497 185.587 270.247 188.206 269.312C190.825 268.376 192.977 266.599 194.661 263.98L196.344 261.361L170.714 111.321H222.723L229.271 210.849H230.767L270.99 111.321H327.114L248.914 266.973C244.923 274.893 239.934 282.002 233.948 288.301C228.023 294.661 220.727 299.681 212.059 303.361C203.391 307.04 193.039 308.88 181.004 308.88Z" fill="#F97316"/>
<path d="M419.582 111.321L413.221 148.738H318.557L324.918 111.321H419.582ZM348.865 76.8981H400.499L378.611 208.791C378.299 210.786 378.361 212.47 378.798 213.842C379.234 215.152 380.107 216.149 381.417 216.835C382.789 217.459 384.597 217.771 386.842 217.771C388.339 217.771 390.178 217.584 392.361 217.209C394.544 216.773 396.196 216.461 397.319 216.274L398.815 252.568C396.196 253.316 392.673 254.158 388.245 255.094C383.88 256.091 378.798 256.746 372.998 257.058C360.9 257.619 351.047 256.341 343.439 253.223C335.894 250.105 330.655 245.241 327.724 238.63C324.856 231.958 324.357 223.633 326.228 213.655L348.865 76.8981ZM408.803 255L432.749 111.321H482.887L478.397 138.635H479.894C484.197 128.533 489.591 121.143 496.076 116.466C502.562 111.789 509.64 109.45 517.31 109.45C519.555 109.45 521.707 109.637 523.765 110.012C525.885 110.323 527.974 110.76 530.032 111.321L522.549 155.472C520.116 154.537 517.092 153.882 513.475 153.508C509.858 153.072 506.647 152.853 503.84 152.853C498.852 152.853 494.174 154.007 489.809 156.314C485.506 158.559 481.827 161.74 478.771 165.856C475.778 169.909 473.783 174.68 472.785 180.167L460.437 255H408.803ZM548.087 257.245C538.982 257.245 531.156 255.748 524.608 252.755C518.123 249.699 513.383 245.085 510.39 238.911C507.459 232.675 506.804 224.817 508.426 215.339C509.735 207.481 512.199 200.777 515.815 195.227C519.432 189.677 523.922 185.125 529.285 181.57C534.648 178.016 540.666 175.303 547.339 173.432C554.074 171.499 561.183 170.252 568.666 169.691C576.773 169.067 583.352 168.288 588.403 167.352C593.454 166.417 597.227 165.138 599.722 163.517C602.216 161.896 603.713 159.713 604.212 156.969V156.595C604.773 152.853 603.775 149.985 601.218 147.989C598.724 145.994 595.232 144.996 590.742 144.996C585.878 144.996 581.668 146.056 578.114 148.176C574.622 150.297 572.221 153.602 570.911 158.092H523.392C525.388 149.361 529.472 141.317 535.646 133.958C541.882 126.537 550.145 120.613 560.434 116.185C570.786 111.695 583.134 109.45 597.477 109.45C607.704 109.45 616.684 110.666 624.416 113.098C632.149 115.468 638.541 118.804 643.592 123.107C648.706 127.348 652.292 132.337 654.35 138.074C656.47 143.749 656.969 149.922 655.846 156.595L639.383 255H591.116L594.483 234.795H593.361C589.619 240.158 585.41 244.492 580.733 247.797C576.118 251.102 571.067 253.503 565.579 255C560.154 256.497 554.323 257.245 548.087 257.245ZM570.537 224.693C574.403 224.693 578.207 223.882 581.949 222.261C585.691 220.639 588.902 218.301 591.584 215.245C594.265 212.189 595.98 208.479 596.728 204.114L598.599 192.141C597.227 192.702 595.699 193.232 594.016 193.731C592.394 194.167 590.679 194.604 588.871 195.04C587.125 195.477 585.254 195.882 583.258 196.256C581.325 196.63 579.33 197.005 577.272 197.379C573.156 198.002 569.695 199.031 566.889 200.466C564.083 201.838 561.9 203.552 560.341 205.61C558.782 207.606 557.815 209.851 557.441 212.345C556.88 216.274 557.784 219.33 560.154 221.512C562.586 223.633 566.047 224.693 570.537 224.693ZM724.998 257.619C709.408 257.619 696.562 254.532 686.459 248.359C676.357 242.123 669.279 233.454 665.226 222.354C661.172 211.192 660.393 198.252 662.887 183.535C665.257 168.818 670.308 155.909 678.041 144.809C685.836 133.646 695.813 124.978 707.974 118.804C720.196 112.568 734.103 109.45 749.693 109.45C763.787 109.45 775.541 112.007 784.958 117.121C794.437 122.172 801.203 129.343 805.256 138.635C809.372 147.864 810.432 158.715 808.437 171.187H760.544C761.105 163.704 759.889 157.967 756.896 153.976C753.965 149.985 749.693 147.989 744.081 147.989C739.466 147.989 735.225 149.299 731.359 151.918C727.555 154.475 724.281 158.372 721.537 163.611C718.856 168.786 716.891 175.303 715.644 183.161C714.397 191.018 714.241 197.566 715.176 202.804C716.174 207.98 718.107 211.878 720.976 214.497C723.907 217.054 727.617 218.332 732.107 218.332C735.974 218.332 739.528 217.459 742.771 215.713C746.076 213.904 748.914 211.285 751.283 207.855C753.715 204.363 755.555 200.123 756.802 195.134H804.695C802.325 207.855 797.555 218.893 790.383 228.247C783.212 237.601 774.076 244.835 762.976 249.949C751.876 255.062 739.216 257.619 724.998 257.619ZM860.003 220.951L870.48 159.588H877.215L920.243 111.321H978.239L907.522 186.528H892.929L860.003 220.951ZM807.994 255L839.798 63.4282H891.433L859.629 255H807.994ZM896.671 255L873.099 198.127L913.134 161.459L955.789 255H896.671ZM1022.39 257.619C1007.05 257.619 994.33 254.688 984.227 248.826C974.125 242.902 967.016 234.421 962.9 223.383C958.784 212.283 958.036 199 960.655 183.535C963.149 168.693 968.294 155.722 976.089 144.622C983.947 133.522 993.831 124.885 1005.74 118.711C1017.71 112.537 1031.12 109.45 1045.96 109.45C1056.81 109.45 1066.32 111.134 1074.49 114.502C1082.73 117.869 1089.43 122.764 1094.61 129.187C1099.78 135.611 1103.27 143.375 1105.08 152.479C1106.95 161.521 1106.95 171.749 1105.08 183.161L1103.21 195.134H974.873L979.363 166.697H1060.18C1060.81 162.582 1060.4 158.965 1058.97 155.847C1057.59 152.666 1055.38 150.203 1052.33 148.457C1049.33 146.648 1045.71 145.744 1041.47 145.744C1037.23 145.744 1033.24 146.648 1029.5 148.457C1025.82 150.265 1022.67 152.791 1020.05 156.034C1017.5 159.276 1015.78 163.08 1014.91 167.446L1009.3 197.379C1008.55 201.993 1008.83 206.109 1010.14 209.726C1011.45 213.343 1013.72 216.181 1016.97 218.238C1020.21 220.296 1024.39 221.325 1029.5 221.325C1032.99 221.325 1036.3 220.858 1039.42 219.922C1042.6 218.924 1045.4 217.49 1047.84 215.619C1050.33 213.686 1052.33 211.348 1053.82 208.604H1100.97C1097.6 218.581 1092.27 227.25 1084.97 234.608C1077.74 241.904 1068.82 247.579 1058.22 251.633C1047.68 255.624 1035.74 257.619 1022.39 257.619ZM1106.28 255L1130.22 111.321H1180.36L1175.87 138.635H1177.37C1181.67 128.533 1187.06 121.143 1193.55 116.466C1200.04 111.789 1207.11 109.45 1214.78 109.45C1217.03 109.45 1219.18 109.637 1221.24 110.012C1223.36 110.323 1225.45 110.76 1227.51 111.321L1220.02 155.472C1217.59 154.537 1214.57 153.882 1210.95 153.508C1207.33 153.072 1204.12 152.853 1201.31 152.853C1196.33 152.853 1191.65 154.007 1187.28 156.314C1182.98 158.559 1179.3 161.74 1176.25 165.856C1173.25 169.909 1171.26 174.68 1170.26 180.167L1157.91 255H1106.28Z" fill="#1A1A2E"/>
<path d="M313.761 296.914L322.507 279.917H329.418L315.101 307H309.035L304.028 279.917H310.94L313.761 296.914ZM308.965 279.917L304.451 307H295.282L299.796 279.917H308.965ZM320.32 307L324.834 279.917H333.862L329.348 307H320.32ZM345.491 307.494C342.552 307.494 340.131 306.912 338.226 305.748C336.334 304.573 335.005 302.939 334.241 300.846C333.477 298.742 333.324 296.303 333.783 293.529C334.241 290.755 335.199 288.321 336.657 286.229C338.115 284.125 339.989 282.491 342.282 281.327C344.574 280.152 347.195 279.564 350.146 279.564C353.073 279.564 355.482 280.152 357.375 281.327C359.279 282.491 360.613 284.125 361.378 286.229C362.153 288.321 362.312 290.755 361.854 293.529C361.395 296.303 360.431 298.742 358.962 300.846C357.493 302.939 355.612 304.573 353.32 305.748C351.039 306.912 348.429 307.494 345.491 307.494ZM346.69 300.3C347.536 300.3 348.306 300.023 349 299.471C349.705 298.918 350.304 298.131 350.798 297.108C351.304 296.086 351.674 294.869 351.909 293.458C352.144 292.036 352.179 290.819 352.015 289.808C351.85 288.786 351.509 287.998 350.992 287.446C350.475 286.893 349.793 286.617 348.947 286.617C348.1 286.617 347.325 286.893 346.619 287.446C345.914 287.998 345.314 288.786 344.821 289.808C344.327 290.819 343.963 292.036 343.728 293.458C343.492 294.869 343.451 296.086 343.604 297.108C343.769 298.131 344.11 298.918 344.627 299.471C345.156 300.023 345.843 300.3 346.69 300.3ZM384.344 289.72L383.145 296.985H369.533L370.732 289.72H384.344ZM375.81 279.917L371.296 307H362.127L366.641 279.917H375.81ZM391.679 279.917L387.165 307H378.067L382.581 279.917H391.679ZM401.624 294.587L411.639 279.917H420.808L416.294 307H407.126L409.594 292.259L399.579 307H390.41L394.924 279.917H404.093L401.624 294.587ZM420.985 287.181L422.184 279.917H448.421L447.222 287.181H438.617L435.302 307H426.134L429.449 287.181H420.985ZM458.331 307.494C455.392 307.494 452.971 306.912 451.066 305.748C449.174 304.573 447.845 302.939 447.081 300.846C446.317 298.742 446.164 296.303 446.623 293.529C447.081 290.755 448.039 288.321 449.497 286.229C450.955 284.125 452.829 282.491 455.122 281.327C457.414 280.152 460.035 279.564 462.986 279.564C465.913 279.564 468.322 280.152 470.215 281.327C472.119 282.491 473.454 284.125 474.218 286.229C474.993 288.321 475.152 290.755 474.694 293.529C474.235 296.303 473.271 298.742 471.802 300.846C470.333 302.939 468.452 304.573 466.16 305.748C463.879 306.912 461.27 307.494 458.331 307.494ZM459.53 300.3C460.376 300.3 461.146 300.023 461.84 299.471C462.545 298.918 463.144 298.131 463.638 297.108C464.144 296.086 464.514 294.869 464.749 293.458C464.984 292.036 465.019 290.819 464.855 289.808C464.69 288.786 464.349 287.998 463.832 287.446C463.315 286.893 462.633 286.617 461.787 286.617C460.94 286.617 460.165 286.893 459.459 287.446C458.754 287.998 458.154 288.786 457.661 289.808C457.167 290.819 456.803 292.036 456.568 293.458C456.332 294.869 456.291 296.086 456.444 297.108C456.609 298.131 456.95 298.918 457.467 299.471C457.996 300.023 458.683 300.3 459.53 300.3ZM473.275 317.156L479.516 279.917H489.179L488.403 284.642H488.615C489.108 283.725 489.755 282.885 490.554 282.121C491.365 281.345 492.318 280.728 493.411 280.269C494.516 279.799 495.738 279.564 497.078 279.564C498.865 279.564 500.481 280.04 501.927 280.992C503.373 281.944 504.437 283.443 505.119 285.488C505.801 287.534 505.871 290.19 505.33 293.458C504.813 296.585 503.89 299.177 502.562 301.234C501.245 303.291 499.694 304.825 497.907 305.836C496.132 306.847 494.281 307.353 492.353 307.353C491.083 307.353 489.984 307.147 489.056 306.736C488.127 306.312 487.381 305.742 486.816 305.025C486.252 304.296 485.864 303.474 485.653 302.557H485.441L483.043 317.156H473.275ZM486.781 293.458C486.569 294.775 486.552 295.915 486.728 296.879C486.916 297.831 487.286 298.572 487.839 299.101C488.403 299.618 489.132 299.877 490.025 299.877C490.919 299.877 491.718 299.624 492.423 299.118C493.129 298.601 493.728 297.866 494.222 296.914C494.716 295.95 495.08 294.798 495.315 293.458C495.527 292.118 495.544 290.972 495.368 290.02C495.192 289.056 494.833 288.321 494.292 287.816C493.752 287.299 493.035 287.04 492.141 287.04C491.248 287.04 490.431 287.299 489.69 287.816C488.962 288.321 488.344 289.056 487.839 290.02C487.345 290.972 486.993 292.118 486.781 293.458ZM516.937 294.587L526.952 279.917H536.121L531.607 307H522.439L524.907 292.259L514.892 307H505.723L510.237 279.917H519.406L516.937 294.587ZM557.338 289.72L556.139 296.985H542.527L543.726 289.72H557.338ZM548.804 279.917L544.29 307H535.121L539.635 279.917H548.804ZM564.673 279.917L560.159 307H551.061L555.575 279.917H564.673ZM587.666 279.917L586.467 287.181H576.099L572.784 307H563.404L567.918 279.917H587.666ZM606.644 307.494C603.705 307.494 601.283 306.912 599.379 305.748C597.475 304.573 596.14 302.939 595.376 300.846C594.612 298.742 594.465 296.303 594.936 293.529C595.382 290.755 596.334 288.321 597.792 286.229C599.261 284.125 601.142 282.491 603.434 281.327C605.738 280.152 608.36 279.564 611.298 279.564C613.955 279.564 616.171 280.046 617.946 281.01C619.733 281.962 621.008 283.314 621.772 285.065C622.548 286.805 622.748 288.85 622.372 291.201H613.344C613.45 289.791 613.22 288.709 612.656 287.957C612.104 287.205 611.298 286.829 610.241 286.829C609.371 286.829 608.571 287.075 607.843 287.569C607.125 288.051 606.508 288.786 605.991 289.773C605.486 290.749 605.115 291.977 604.88 293.458C604.645 294.939 604.616 296.174 604.792 297.161C604.98 298.137 605.345 298.871 605.885 299.365C606.438 299.847 607.137 300.088 607.984 300.088C608.712 300.088 609.382 299.924 609.994 299.594C610.617 299.253 611.152 298.76 611.598 298.113C612.057 297.455 612.403 296.656 612.639 295.715H621.666C621.22 298.113 620.32 300.194 618.969 301.957C617.617 303.72 615.895 305.084 613.802 306.048C611.71 307.012 609.324 307.494 606.644 307.494ZM635.195 307.494C632.303 307.494 629.905 306.941 628.001 305.836C626.097 304.72 624.757 303.121 623.981 301.04C623.205 298.948 623.064 296.444 623.558 293.529C624.028 290.731 624.998 288.286 626.467 286.194C627.948 284.101 629.811 282.473 632.057 281.31C634.314 280.146 636.841 279.564 639.639 279.564C641.684 279.564 643.476 279.881 645.016 280.516C646.568 281.151 647.832 282.074 648.807 283.284C649.783 284.495 650.441 285.959 650.782 287.675C651.135 289.379 651.135 291.307 650.782 293.458L650.43 295.715H626.238L627.084 290.355H642.319C642.436 289.579 642.36 288.897 642.089 288.31C641.831 287.71 641.414 287.246 640.838 286.917C640.273 286.576 639.591 286.405 638.792 286.405C637.993 286.405 637.241 286.576 636.535 286.917C635.842 287.258 635.248 287.734 634.754 288.345C634.272 288.956 633.949 289.673 633.785 290.496L632.727 296.138C632.586 297.008 632.638 297.784 632.885 298.466C633.132 299.148 633.561 299.683 634.172 300.07C634.784 300.458 635.571 300.652 636.535 300.652C637.193 300.652 637.816 300.564 638.404 300.388C639.004 300.2 639.533 299.929 639.991 299.577C640.461 299.212 640.838 298.772 641.12 298.254H650.006C649.372 300.135 648.367 301.769 646.991 303.156C645.628 304.531 643.947 305.601 641.948 306.365C639.962 307.118 637.711 307.494 635.195 307.494ZM649.385 317.156L655.627 279.917H665.29L664.514 284.642H664.725C665.219 283.725 665.866 282.885 666.665 282.121C667.476 281.345 668.428 280.728 669.521 280.269C670.626 279.799 671.849 279.564 673.189 279.564C674.976 279.564 676.592 280.04 678.038 280.992C679.484 281.944 680.547 283.443 681.229 285.488C681.911 287.534 681.982 290.19 681.441 293.458C680.924 296.585 680.001 299.177 678.673 301.234C677.356 303.291 675.804 304.825 674.018 305.836C672.243 306.847 670.391 307.353 668.463 307.353C667.194 307.353 666.095 307.147 665.166 306.736C664.238 306.312 663.491 305.742 662.927 305.025C662.363 304.296 661.975 303.474 661.763 302.557H661.552L659.154 317.156H649.385ZM662.892 293.458C662.68 294.775 662.662 295.915 662.839 296.879C663.027 297.831 663.397 298.572 663.95 299.101C664.514 299.618 665.243 299.877 666.136 299.877C667.029 299.877 667.829 299.624 668.534 299.118C669.239 298.601 669.839 297.866 670.332 296.914C670.826 295.95 671.191 294.798 671.426 293.458C671.637 292.118 671.655 290.972 671.479 290.02C671.302 289.056 670.944 288.321 670.403 287.816C669.862 287.299 669.145 287.04 668.252 287.04C667.358 287.04 666.541 287.299 665.801 287.816C665.072 288.321 664.455 289.056 663.95 290.02C663.456 290.972 663.103 292.118 662.892 293.458ZM681.834 307L686.347 279.917H698.196C701.817 279.917 704.568 280.534 706.448 281.768C708.329 283.002 709.058 284.854 708.635 287.322C708.423 288.662 707.647 289.85 706.307 290.884C704.967 291.918 703.157 292.612 700.877 292.965C702.91 293.059 704.509 293.435 705.673 294.093C706.848 294.74 707.653 295.551 708.088 296.526C708.523 297.49 708.658 298.489 708.494 299.524C708.223 301.17 707.548 302.551 706.466 303.667C705.385 304.772 703.927 305.607 702.093 306.171C700.259 306.724 698.067 307 695.516 307H681.834ZM691.99 300.159H696.645C697.444 300.159 698.102 299.971 698.62 299.594C699.137 299.218 699.442 298.701 699.537 298.043C699.666 297.361 699.531 296.826 699.131 296.438C698.743 296.05 698.149 295.856 697.35 295.856H692.695L691.99 300.159ZM693.541 290.919H696.645C697.15 290.919 697.591 290.843 697.967 290.69C698.355 290.525 698.673 290.296 698.919 290.002C699.166 289.708 699.325 289.356 699.395 288.944C699.489 288.321 699.319 287.839 698.884 287.499C698.461 287.146 697.832 286.97 696.997 286.97H694.176L693.541 290.919ZM722.371 307.494C719.479 307.494 717.081 306.941 715.177 305.836C713.273 304.72 711.932 303.121 711.157 301.04C710.381 298.948 710.24 296.444 710.733 293.529C711.204 290.731 712.173 288.286 713.643 286.194C715.124 284.101 716.987 282.473 719.232 281.31C721.489 280.146 724.017 279.564 726.814 279.564C728.86 279.564 730.652 279.881 732.192 280.516C733.744 281.151 735.007 282.074 735.983 283.284C736.959 284.495 737.617 285.959 737.958 287.675C738.311 289.379 738.311 291.307 737.958 293.458L737.605 295.715H713.414L714.26 290.355H729.494C729.612 289.579 729.535 288.897 729.265 288.31C729.006 287.71 728.589 287.246 728.013 286.917C727.449 286.576 726.767 286.405 725.968 286.405C725.169 286.405 724.416 286.576 723.711 286.917C723.017 287.258 722.424 287.734 721.93 288.345C721.448 288.956 721.125 289.673 720.96 290.496L719.902 296.138C719.761 297.008 719.814 297.784 720.061 298.466C720.308 299.148 720.737 299.683 721.348 300.07C721.959 300.458 722.747 300.652 723.711 300.652C724.369 300.652 724.992 300.564 725.58 300.388C726.179 300.2 726.708 299.929 727.167 299.577C727.637 299.212 728.013 298.772 728.295 298.254H737.182C736.547 300.135 735.542 301.769 734.167 303.156C732.803 304.531 731.122 305.601 729.124 306.365C727.137 307.118 724.886 307.494 722.371 307.494ZM736.561 317.156L742.803 279.917H752.465L751.689 284.642H751.901C752.395 283.725 753.041 282.885 753.841 282.121C754.652 281.345 755.604 280.728 756.697 280.269C757.802 279.799 759.025 279.564 760.365 279.564C762.151 279.564 763.768 280.04 765.214 280.992C766.659 281.944 767.723 283.443 768.405 285.488C769.087 287.534 769.157 290.19 768.617 293.458C768.099 296.585 767.177 299.177 765.848 301.234C764.532 303.291 762.98 304.825 761.193 305.836C759.418 306.847 757.567 307.353 755.639 307.353C754.37 307.353 753.27 307.147 752.342 306.736C751.413 306.312 750.667 305.742 750.103 305.025C749.538 304.296 749.15 303.474 748.939 302.557H748.727L746.329 317.156H736.561ZM750.067 293.458C749.856 294.775 749.838 295.915 750.014 296.879C750.202 297.831 750.573 298.572 751.125 299.101C751.689 299.618 752.418 299.877 753.312 299.877C754.205 299.877 755.004 299.624 755.71 299.118C756.415 298.601 757.014 297.866 757.508 296.914C758.002 295.95 758.366 294.798 758.601 293.458C758.813 292.118 758.831 290.972 758.654 290.02C758.478 289.056 758.119 288.321 757.579 287.816C757.038 287.299 756.321 287.04 755.428 287.04C754.534 287.04 753.717 287.299 752.977 287.816C752.248 288.321 751.631 289.056 751.125 290.02C750.632 290.972 750.279 292.118 750.067 293.458ZM781.916 307.494C778.977 307.494 776.556 306.912 774.652 305.748C772.759 304.573 771.431 302.939 770.667 300.846C769.903 298.742 769.75 296.303 770.208 293.529C770.667 290.755 771.625 288.321 773.082 286.229C774.54 284.125 776.415 282.491 778.707 281.327C780.999 280.152 783.621 279.564 786.571 279.564C789.498 279.564 791.908 280.152 793.8 281.327C795.705 282.491 797.039 284.125 797.803 286.229C798.579 288.321 798.738 290.755 798.279 293.529C797.821 296.303 796.857 298.742 795.387 300.846C793.918 302.939 792.037 304.573 789.745 305.748C787.465 306.912 784.855 307.494 781.916 307.494ZM783.115 300.3C783.962 300.3 784.731 300.023 785.425 299.471C786.13 298.918 786.73 298.131 787.224 297.108C787.729 296.086 788.099 294.869 788.334 293.458C788.569 292.036 788.605 290.819 788.44 289.808C788.276 288.786 787.935 287.998 787.417 287.446C786.9 286.893 786.218 286.617 785.372 286.617C784.526 286.617 783.75 286.893 783.045 287.446C782.339 287.998 781.74 288.786 781.246 289.808C780.752 290.819 780.388 292.036 780.153 293.458C779.918 294.869 779.877 296.086 780.03 297.108C780.194 298.131 780.535 298.918 781.052 299.471C781.581 300.023 782.269 300.3 783.115 300.3ZM798.553 307L803.067 279.917H814.916C818.536 279.917 821.287 280.534 823.168 281.768C825.048 283.002 825.777 284.854 825.354 287.322C825.142 288.662 824.367 289.85 823.027 290.884C821.686 291.918 819.876 292.612 817.596 292.965C819.629 293.059 821.228 293.435 822.392 294.093C823.567 294.74 824.372 295.551 824.807 296.526C825.242 297.49 825.377 298.489 825.213 299.524C824.943 301.17 824.267 302.551 823.185 303.667C822.104 304.772 820.646 305.607 818.812 306.171C816.979 306.724 814.786 307 812.235 307H798.553ZM808.709 300.159H813.364C814.163 300.159 814.822 299.971 815.339 299.594C815.856 299.218 816.162 298.701 816.256 298.043C816.385 297.361 816.25 296.826 815.85 296.438C815.462 296.05 814.869 295.856 814.069 295.856H809.414L808.709 300.159ZM810.261 290.919H813.364C813.869 290.919 814.31 290.843 814.686 290.69C815.074 290.525 815.392 290.296 815.639 290.002C815.885 289.708 816.044 289.356 816.115 288.944C816.209 288.321 816.038 287.839 815.603 287.499C815.18 287.146 814.551 286.97 813.717 286.97H810.895L810.261 290.919ZM834.444 307L840.439 270.889H850.243L847.915 284.995H860.893L863.22 270.889H873.024L867.029 307H857.225L859.553 292.894H846.575L844.248 307H834.444ZM874.602 317.156C873.474 317.156 872.422 317.068 871.446 316.892C870.47 316.727 869.618 316.498 868.889 316.204L872.169 309.292C872.921 309.574 873.615 309.757 874.25 309.839C874.896 309.921 875.466 309.874 875.96 309.698C876.454 309.521 876.859 309.186 877.177 308.693L877.494 308.199L872.663 279.917H882.466L883.701 298.678H883.983L891.565 279.917H902.144L887.403 309.257C886.651 310.75 885.711 312.09 884.582 313.277C883.466 314.476 882.09 315.422 880.456 316.116C878.822 316.809 876.871 317.156 874.602 317.156ZM919.574 279.917L918.375 286.97H900.531L901.73 279.917H919.574ZM906.244 273.428H915.977L911.851 298.29C911.792 298.666 911.804 298.983 911.886 299.242C911.969 299.489 912.133 299.677 912.38 299.806C912.639 299.924 912.98 299.982 913.403 299.982C913.685 299.982 914.032 299.947 914.443 299.877C914.855 299.794 915.166 299.735 915.378 299.7L915.66 306.542C915.166 306.683 914.502 306.841 913.667 307.018C912.844 307.206 911.886 307.329 910.793 307.388C908.513 307.494 906.655 307.253 905.221 306.665C903.799 306.077 902.812 305.16 902.259 303.914C901.718 302.657 901.624 301.087 901.977 299.206L906.244 273.428ZM925.019 307.423C923.302 307.423 921.827 307.141 920.593 306.577C919.37 306.001 918.477 305.131 917.913 303.967C917.36 302.792 917.237 301.311 917.542 299.524C917.789 298.043 918.254 296.779 918.935 295.733C919.617 294.687 920.464 293.829 921.474 293.159C922.485 292.489 923.62 291.977 924.877 291.625C926.147 291.26 927.487 291.025 928.898 290.919C930.426 290.802 931.666 290.655 932.618 290.478C933.57 290.302 934.281 290.061 934.752 289.756C935.222 289.45 935.504 289.038 935.598 288.521V288.451C935.704 287.745 935.516 287.205 935.034 286.829C934.564 286.452 933.905 286.264 933.059 286.264C932.142 286.264 931.349 286.464 930.679 286.864C930.02 287.263 929.568 287.886 929.321 288.733H920.364C920.74 287.087 921.51 285.571 922.673 284.184C923.849 282.785 925.406 281.668 927.346 280.834C929.297 279.987 931.625 279.564 934.328 279.564C936.256 279.564 937.949 279.793 939.407 280.252C940.864 280.698 942.069 281.327 943.021 282.138C943.985 282.938 944.661 283.878 945.049 284.959C945.449 286.029 945.543 287.193 945.331 288.451L942.228 307H933.129L933.764 303.191H933.553C932.847 304.202 932.054 305.019 931.172 305.642C930.302 306.265 929.35 306.718 928.316 307C927.293 307.282 926.194 307.423 925.019 307.423ZM929.25 301.287C929.979 301.287 930.696 301.134 931.401 300.829C932.107 300.523 932.712 300.082 933.218 299.506C933.723 298.93 934.046 298.231 934.187 297.408L934.54 295.151C934.281 295.257 933.993 295.357 933.676 295.451C933.37 295.533 933.047 295.615 932.706 295.698C932.377 295.78 932.024 295.856 931.648 295.927C931.284 295.997 930.908 296.068 930.52 296.138C929.744 296.256 929.092 296.45 928.563 296.72C928.034 296.979 927.622 297.302 927.328 297.69C927.035 298.066 926.852 298.489 926.782 298.96C926.676 299.7 926.846 300.276 927.293 300.688C927.752 301.087 928.404 301.287 929.25 301.287ZM961.117 270.889L955.122 307H945.389L951.384 270.889H961.117ZM971.498 307.494C968.607 307.494 966.209 306.941 964.304 305.836C962.4 304.72 961.06 303.121 960.284 301.04C959.508 298.948 959.367 296.444 959.861 293.529C960.331 290.731 961.301 288.286 962.77 286.194C964.251 284.101 966.115 282.473 968.36 281.31C970.617 280.146 973.144 279.564 975.942 279.564C977.987 279.564 979.78 279.881 981.32 280.516C982.871 281.151 984.135 282.074 985.11 283.284C986.086 284.495 986.744 285.959 987.085 287.675C987.438 289.379 987.438 291.307 987.085 293.458L986.733 295.715H962.541L963.387 290.355H978.622C978.739 289.579 978.663 288.897 978.393 288.31C978.134 287.71 977.717 287.246 977.141 286.917C976.576 286.576 975.895 286.405 975.095 286.405C974.296 286.405 973.544 286.576 972.838 286.917C972.145 287.258 971.551 287.734 971.057 288.345C970.576 288.956 970.252 289.673 970.088 290.496L969.03 296.138C968.889 297.008 968.942 297.784 969.188 298.466C969.435 299.148 969.864 299.683 970.476 300.07C971.087 300.458 971.874 300.652 972.838 300.652C973.497 300.652 974.12 300.564 974.707 300.388C975.307 300.2 975.836 299.929 976.294 299.577C976.764 299.212 977.141 298.772 977.423 298.254H986.309C985.675 300.135 984.67 301.769 983.294 303.156C981.931 304.531 980.25 305.601 978.251 306.365C976.265 307.118 974.014 307.494 971.498 307.494Z" fill="#1A1A2E"/>
</svg>
